<svg xmlns="http://www.w3.org/2000/svg" viewBox="0 0 750 500"><defs><style>.cls-1{fill:#140e02;}.cls-2{fill:#aa7d3c;}.cls-3,.cls-4,.cls-8{fill:#ededed;}.cls-4{font-size:55.95px;font-family:BarlowCondensed-Medium, BarlowCondensed Medium;font-weight:500;}.cls-5{letter-spacing:0.07em;}.cls-6{letter-spacing:0.08em;}.cls-7{fill:#e2b566;}.cls-8{font-size:53.55px;font-family:Aleo-Bold, Aleo Bold;font-weight:700;letter-spacing:0.07em;}</style></defs><g id="BACKGROUND"><rect class="cls-1" width="750" height="500"/></g><g id="OBJECTS"><path class="cls-2" d="M385,415.55a46.21,46.21,0,0,0-5.48-10.43c-7.32-10.22-19.92-14.82-29.24-5.91a37.19,37.19,0,0,1-4.1,1.11,3.74,3.74,0,0,1-.82,3.06,3.86,3.86,0,0,0-.32.65c.51-.07,1-.14,1.54-.23-3.46,5.59-5,13-.94,18.59,3.84,5.35,8.94,6,12.7,1.59,2.84-3.33,3.66-8.25.3-12.32-1.33-1.62-3.29-2.48-5.14-1-1.4,1.16-2.59,3.78-1,5.47.92,1,1.65.47,2.65.13,1.55-.54,3.28,1.62.87,4.44-2.76,3.24-5.86,1.44-7.84-1.32-3.2-4.47-.75-11.1,2.89-15.36,6.93-8.12,16.72-5.91,23.45,1.07a9.26,9.26,0,0,0-7.27-1c-3.25.93-5.8,4.09-6.12,8.43-.21,3,1.92,7.38,4.56,4.89a3.93,3.93,0,0,0,.82-3.84c-.54-1.41-2.15-1.19-2.67-2,.89-5.39,4.59-5.74,8.27-5-1.72.48-3.17,1.9-3.71,4.61-.61,3.07.69,7.53,3.6,7.35,2.61-.17,3.64-4.11,1.76-6.32a1.3,1.3,0,0,0-1.77-.41,2.92,2.92,0,0,0-1,1.5,4.32,4.32,0,0,1,.11-2.6,3.72,3.72,0,0,1,3.34-2.29,5.8,5.8,0,0,1,3.72,1.41A56.5,56.5,0,0,1,385,428.2a56,56,0,0,1,6.88-18.38,5.8,5.8,0,0,1,3.71-1.41,3.75,3.75,0,0,1,3.35,2.29,4.4,4.4,0,0,1,.11,2.6,2.88,2.88,0,0,0-1-1.5,1.29,1.29,0,0,0-1.76.41c-1.89,2.21-.85,6.15,1.76,6.32,2.91.18,4.21-4.28,3.6-7.35-.54-2.71-2-4.13-3.72-4.61,3.69-.74,7.39-.39,8.28,5-.52.81-2.13.59-2.67,2a3.93,3.93,0,0,0,.82,3.84c2.64,2.49,4.77-1.88,4.55-4.89-.31-4.34-2.86-7.5-6.12-8.43a9.24,9.24,0,0,0-7.26,1c6.73-7,16.51-9.19,23.44-1.07,3.64,4.26,6.1,10.89,2.89,15.36-2,2.76-5.07,4.56-7.84,1.32-2.4-2.82-.67-5,.88-4.44,1,.34,1.73.86,2.65-.13,1.58-1.69.38-4.31-1-5.47-1.86-1.52-3.81-.66-5.14,1-3.36,4.07-2.54,9,.3,12.32,3.76,4.4,8.86,3.76,12.7-1.59,4-5.63,2.52-13-.94-18.59.51.09,1,.16,1.54.23a3.7,3.7,0,0,0-.33-.65,3.73,3.73,0,0,1-.81-3.06,36.61,36.61,0,0,1-4.1-1.11c-9.32-8.91-21.92-4.31-29.24,5.91A46.21,46.21,0,0,0,385,415.55Z"/><path class="cls-3" d="M382.18,453.46a43,43,0,0,0,0-13.49c-.74-4.44-3-9.36-7-11.1a7,7,0,0,0-6.24.34,9.5,9.5,0,0,0-4.24,6.45c-.63,3,.1,6.52,2.25,8.58a4.94,4.94,0,0,0,3.78,1.38,4.45,4.45,0,0,0,3.88-3,3,3,0,0,0-1-3.55c-2.29-1.41-2.52,2.64-4.31,1a3.87,3.87,0,0,1-.91-3.26,4.66,4.66,0,0,1,5.9-4.12c2.72.82,4.87,4.18,6,8.07A59.77,59.77,0,0,1,382.18,453.46Z"/><path class="cls-3" d="M387.77,453.46a43.29,43.29,0,0,1,0-13.49c.74-4.44,3-9.36,7-11.1a7,7,0,0,1,6.25.34,9.53,9.53,0,0,1,4.24,6.45c.63,3-.11,6.52-2.26,8.58a4.91,4.91,0,0,1-3.77,1.38,4.46,4.46,0,0,1-3.89-3,3,3,0,0,1,1-3.55c2.29-1.41,2.52,2.64,4.32,1a3.84,3.84,0,0,0,.9-3.26,4.65,4.65,0,0,0-5.89-4.12c-2.72.82-4.87,4.18-6,8.07A60.4,60.4,0,0,0,387.77,453.46Z"/><path class="cls-3" d="M384.05,443.15a37.41,37.41,0,0,0-1.58-12.33,20.53,20.53,0,0,0-2.77-5.66,9.4,9.4,0,0,0-5-3.86l-.13,0c-1.13-.32-2.25.6-2.5,2.05-.3,1.7.74,3.34,2.15,3.27a5,5,0,0,1,3.4,1.54,14.68,14.68,0,0,1,3,4A33.47,33.47,0,0,1,384.05,443.15Z"/><path class="cls-3" d="M385.91,443.15a37.41,37.41,0,0,1,1.58-12.33,20.26,20.26,0,0,1,2.77-5.66,9.37,9.37,0,0,1,5-3.86l.13,0c1.14-.32,2.26.6,2.51,2.05.29,1.7-.74,3.34-2.15,3.27a5,5,0,0,0-3.4,1.54,14.71,14.71,0,0,0-3,4A33.46,33.46,0,0,0,385.91,443.15Z"/><path class="cls-3" d="M22.77,271.39c3.85,2.44,12.93,5.41,22.23,3.42,14-3,22.22-14.7,22.9-28.44.73-14.79-11.86-25.34-26-24l-7.61.92c0-5.85,0-8.79,0-14.63l7.63-.75c12-1.72,22.71-12.62,22.69-25,0-10-6.93-19-17.73-18.45-8,.41-16,5-20.33,9.27-1.43-5.18-2.15-7.72-3.59-12.62,6.53-6.05,18.3-9.34,26.62-9.53,15.8-.36,28.9,11.85,29,27.79,0,13.2-7.74,26-18.88,33v.43c14.28,3.1,22.81,17.93,22.4,31.83-.65,21.41-16.16,37.92-36.94,42.51-11.24,2.49-21.12,1-26-1.82C20.54,280,21.28,277.16,22.77,271.39Z"/><path class="cls-3" d="M166.93,207.3c-.42,25.7-5.93,57.8-36,63.18C100.32,276,97.9,234.39,98,214.86c.07-22.06,4.11-64.17,35.88-63.75C162.67,151.48,167.3,184.81,166.93,207.3Zm-55.23,6.45c-.09,11.69-.41,49.59,20.18,46.37,20.77-3.26,21.15-35.64,21.27-51.05.09-12.32.44-48.32-20.21-47.29C112,162.83,111.81,199.82,111.7,213.75Z"/><path class="cls-3" d="M210,164.19h-.31c-7.13,3.92-10.69,6-17.82,10.35-1-4.49-1.53-6.69-2.55-10.89,9-5,13.43-7.28,22.38-11.45l11.76-.06c-.4,34.91-.65,69.82-1.07,104.74-5.34.54-8,.82-13.36,1.41C209.4,226.93,209.64,195.56,210,164.19Z"/><path class="cls-3" d="M265.43,150.07c6.91-1.13,16.86-1.64,26.17-1.73,10.14-.09,22,.6,30.51,6.76,5.29,3.83,8.26,10.32,8.22,18.39a30.56,30.56,0,0,1-20.08,28.4v.5c8.16,2.82,13,11,15.48,21.8,3.36,14.58,5.89,22.49,8.09,25.45-5.69.17-8.53.26-14.21.48-1.73-2.16-4.68-9.45-7-21.83-2.06-11.09-8.89-20.51-21.13-20.51-5.16.16-7.74.25-12.9.45q-.15,22-.34,44c-5.49.36-8.23.55-13.72.95C264.91,218.82,265.1,184.44,265.43,150.07Zm13.26,47c5.6-.17,8.39-.26,14-.4,12.63-.54,23.68-8.26,24-21.44.33-13.67-12.35-18.39-24.2-18.36A62,62,0,0,0,279,158Q278.83,177.52,278.69,197Z"/><path class="cls-3" d="M367.49,219.33c-3.41,10-6.75,20.13-11.09,29.82-5.69.09-8.53.14-14.22.27,14.46-32.6,21.35-68.09,36.18-100.52h16.45c14.59,32.74,21.58,68.38,36.47,101-5.87-.2-8.81-.29-14.69-.43-4.46-9.75-7.92-19.89-11.44-30Q386.33,219.24,367.49,219.33Zm34.8-10.89q-5.16-15.88-10.42-31.72c-2.36-6.92-3.94-12.85-5.51-18.14h-.31c-1.57,5.42-3.29,11.53-5.33,18q-5.27,15.89-10.39,31.8Q386.32,208.28,402.29,208.44Z"/><path class="cls-3" d="M535.3,210.24c-.95-16.37-1.94-32.77-2-49.17h-.47q-6.27,21.18-12.93,42.23c-5.52,16.89-10.91,33.88-18.24,50.1-4.16-.33-6.24-.49-10.4-.79-7-16.24-12.16-33.3-17.55-50.13-4.35-14-8.66-28-12.52-42.2h-.32c-.34,16-1,31.88-1.74,47.81-.77,14.3-1.51,28.6-2.56,42.88-5.23-.26-7.85-.38-13.1-.6,2.83-33.77,4-67.66,6.82-101.43l17.39,0c7.37,16.2,12.83,33.17,18.42,50,3.95,12.54,7.69,25.17,11,37.9l.47,0c3.22-12.47,7-24.81,10.85-37.08,5.65-17.06,11-34.37,18.32-50.82l17.39,0c3.13,36.51,4.55,73.15,7.74,109.66-5.34-.6-8-.89-13.36-1.44C537.16,241.6,536.26,225.92,535.3,210.24Z"/><path class="cls-3" d="M662.33,210.89c-.52,30.83-10.9,62.93-48.29,57.64C582.21,264,565.61,234.91,566,205.85c.38-28.72,14.85-58.17,48.41-58.2C648.66,147.61,662.83,181.62,662.33,210.89Zm-81.77-4.45c.24,21.62,9.89,48,34.14,51.66,26.69,4.06,33.48-27.69,33.28-47.71-.22-21-8-51.77-34.09-52.2C588.38,157.77,580.33,185.63,580.56,206.44Z"/><path class="cls-3" d="M678.36,260.08a57.91,57.91,0,0,0,24.25,12.45c12.45,2.85,22.19-6.28,21.76-18.71-.47-13.73-8.33-24.52-19.78-31.59-14.45-8.92-27.65-24.53-28-42.1-.31-18.61,15.66-32.6,33.93-32.49,10.74.07,18.65,2.71,23.35,5.86-1.5,5.15-2.25,7.86-3.75,13.43a38,38,0,0,0-20-6.7c-11-.46-20,7.5-19.77,18.64.22,13.34,10.4,22.39,21,28.71,17,10.08,26.65,27.13,26.75,47.12.12,22-14.5,35.06-36.4,30.06-8.79-2-19.62-6.39-26.7-12.44C676.37,267.71,677,265.24,678.36,260.08Z"/><text class="cls-4" transform="translate(187.2 87.81) scale(0.78 1)"><tspan class="cls-5">ES</tspan><tspan x="63.51" y="0">T</tspan><tspan class="cls-6" x="91.31" y="0">ABLISHED 2020</tspan></text><path class="cls-7" d="M613.63,127.78H156.32c-1.2,0-2.17-1.24-2.17-2.78s1-2.78,2.17-2.78H613.63a2.86,2.86,0,0,1,0,5.56Z"/><path class="cls-2" d="M711,109.88H53a3.45,3.45,0,0,1,0-6.81H711a3.45,3.45,0,0,1,0,6.81Z"/><path class="cls-7" d="M603.57,88.13c-4-4-4.57-12.4,4.95-22.08,2.83-2.88,6-5.49,8.68-8,2.25-5.86,1.1-8.8-.23-10.39-3.29-4-7.16-2-8.14-.66,2.28,0,3.12,1.39,3,3.25a4.54,4.54,0,0,1-4.94,4.29,4.09,4.09,0,0,1-3.77-3.86,8,8,0,0,1,2.9-7.14,9.65,9.65,0,0,1,13.87,1c2.75,3.3,2.63,8.3.9,13.08,7.8-5.23,17.09-8.85,26.09-8.75,12.16.14,24.61,8.11,25.76,21.34,15.47,30.74,42.69,15.64,37.85-3.15-2.92-11.29-13-15-19.32-11.07-10.52,6.52-3,22.48,4.37,17.63,5.27-3.46,1-10-2.28-6-1.93,2.38-3.73-1.75-1.54-4.51,3.88-4.86,12.14-.3,11.14,6.88-.61,4.81-5.51,8.91-10.38,8.19-10.86-1.33-12.65-18.45-2.75-24.58,17.89-11.1,34.93,22.32,15.74,34.21C693.12,95.5,680.76,89,672.39,76.15c-1.06,6.28-4.75,11.95-11.46,11.88-6.37-.07-10.61-4-10.54-9.85,0-4.4,2.65-8,7.82-7.6a4.58,4.58,0,0,1,4.48,3.8c.29,1.88-.53,4.46-2.82,4.12-1.34-.2-1.54-1.12-2.06-2.18-.81-1.63-3.53-1.82-3.56,1.9,0,4.28,3.44,5.85,6.73,5.88,5.32.06,7.82-6,7.88-11.6.12-10.73-8.66-17.73-18.26-19.3a13,13,0,0,1,6.12,5.57A8.7,8.7,0,0,1,655.79,69c-1.8,2-6.26,2.77-6.61-1a3,3,0,0,1,1.9-3c1.32-.38,2.39,1.12,3.31,1.08,2.85-4,.31-7.32-2.93-10a5.42,5.42,0,0,1-.23,5.9c-1.55,2.35-5.44,3.9-7.5,1.32a3.21,3.21,0,0,1,2.81-5.26,1.72,1.72,0,0,1,1.59,1.26,2.79,2.79,0,0,1-.2,1.77,3.13,3.13,0,0,0,1.61-1.65,4.46,4.46,0,0,0-1-4.2,7.6,7.6,0,0,0-3.7-2.32c-7.65.41-19.84,4.24-30.43,15-6.8,6.93-7.14,12.48-7.14,13.56,0,.42.08,4.38,4.18,3.66-1.84-1.53-2.53-5.47.87-6.71,6.38-2.34,8.27,7.21,3.69,10.73A9.7,9.7,0,0,1,603.57,88.13Z"/><path class="cls-3" d="M613.24,75.45a29.93,29.93,0,0,1,8.84-8c3.45-2,8.33-3.06,12.52-.63a9.89,9.89,0,0,1,4.46,5.51,8.82,8.82,0,0,1-1,7.44,7.12,7.12,0,0,1-7.3,3.2A6.56,6.56,0,0,1,627,80.58a5.23,5.23,0,0,1-.94-5.11,2.31,2.31,0,0,1,3-1.28c2.64,1.11.17,3.71,2.6,4.24a2.88,2.88,0,0,0,2.81-1.16c1.66-2.16.91-5.62-1.73-7.47s-6.37-1.65-9.75-.28A43,43,0,0,0,613.24,75.45Z"/><path class="cls-3" d="M618.59,67.73a25.87,25.87,0,0,1,9.24-6,16.4,16.4,0,0,1,5.77-1,10.48,10.48,0,0,1,6.27,1.95l.12.08a2.43,2.43,0,0,1,.54,3.35,2.34,2.34,0,0,1-3.75.12,6.54,6.54,0,0,0-3.56-2,13.5,13.5,0,0,0-4.85-.21A24.73,24.73,0,0,0,618.59,67.73Z"/><path class="cls-7" d="M160.47,88.13c3.95-4,4.56-12.4-5-22.08-2.83-2.88-6-5.49-8.68-8-2.25-5.86-1.1-8.8.23-10.39,3.29-4,7.16-2,8.14-.66-2.28,0-3.11,1.39-3,3.25a4.53,4.53,0,0,0,4.93,4.29,4.09,4.09,0,0,0,3.77-3.86,8,8,0,0,0-2.89-7.14,9.66,9.66,0,0,0-13.88,1c-2.75,3.3-2.62,8.3-.9,13.08-7.8-5.23-17.09-8.85-26.09-8.75-12.16.14-24.61,8.11-25.76,21.34C76,101,48.73,85.92,53.57,67.13c2.92-11.29,13-15,19.32-11.07,10.52,6.52,3,22.48-4.37,17.63-5.27-3.46-1-10,2.29-6,1.92,2.38,3.72-1.75,1.53-4.51C68.47,58.3,60.2,62.86,61.2,70c.61,4.81,5.52,8.91,10.38,8.19,10.86-1.33,12.65-18.45,2.75-24.58C56.44,42.55,39.4,76,58.59,87.86,70.91,95.5,83.27,89,91.65,76.15,92.71,82.43,96.39,88.1,103.1,88c6.37-.07,10.61-4,10.54-9.85,0-4.4-2.65-8-7.82-7.6a4.58,4.58,0,0,0-4.48,3.8c-.29,1.88.53,4.46,2.82,4.12,1.34-.2,1.54-1.12,2.06-2.18.81-1.63,3.53-1.82,3.57,1.9,0,4.28-3.45,5.85-6.74,5.88-5.32.06-7.82-6-7.88-11.6-.11-10.73,8.66-17.73,18.26-19.3a13,13,0,0,0-6.12,5.57A8.7,8.7,0,0,0,108.24,69c1.81,2,6.26,2.77,6.61-1a3,3,0,0,0-1.9-3c-1.32-.38-2.39,1.12-3.31,1.08-2.85-4-.31-7.32,2.93-10a5.4,5.4,0,0,0,.24,5.9c1.55,2.35,5.43,3.9,7.49,1.32a3.21,3.21,0,0,0-2.81-5.26,1.72,1.72,0,0,0-1.59,1.26,2.72,2.72,0,0,0,.21,1.77,3.11,3.11,0,0,1-1.62-1.65,4.46,4.46,0,0,1,1-4.2,7.6,7.6,0,0,1,3.7-2.32c7.65.41,19.84,4.24,30.43,15,6.81,6.93,7.14,12.48,7.14,13.56,0,.42-.08,4.38-4.18,3.66,1.84-1.53,2.53-5.47-.87-6.71-6.38-2.34-8.27,7.21-3.69,10.73A9.71,9.71,0,0,0,160.47,88.13Z"/><path class="cls-3" d="M150.79,75.45a29.93,29.93,0,0,0-8.84-8c-3.45-2-8.33-3.06-12.52-.63A9.89,9.89,0,0,0,125,72.32a8.82,8.82,0,0,0,1,7.44,7.12,7.12,0,0,0,7.3,3.2A6.56,6.56,0,0,0,137,80.58a5.23,5.23,0,0,0,.94-5.11,2.31,2.31,0,0,0-3-1.28c-2.64,1.11-.17,3.71-2.6,4.24a2.88,2.88,0,0,1-2.81-1.16c-1.66-2.16-.91-5.62,1.73-7.47s6.37-1.65,9.75-.28A43,43,0,0,1,150.79,75.45Z"/><path class="cls-3" d="M145.44,67.73a25.87,25.87,0,0,0-9.24-6,16.4,16.4,0,0,0-5.77-1,10.5,10.5,0,0,0-6.27,1.95l-.12.08a2.43,2.43,0,0,0-.54,3.35,2.34,2.34,0,0,0,3.75.12,6.54,6.54,0,0,1,3.56-2,13.5,13.5,0,0,1,4.85-.21A24.73,24.73,0,0,1,145.44,67.73Z"/><path class="cls-2" d="M349.21,404.94H154.28c-1.47,0-2.66-1.53-2.66-3.41s1.19-3.41,2.66-3.41H349.21c1.47,0,2.67,1.53,2.67,3.41S350.68,404.94,349.21,404.94Z"/><path class="cls-2" d="M615.68,404.94H420.75c-1.48,0-2.67-1.53-2.67-3.41s1.19-3.41,2.67-3.41H615.68c1.47,0,2.66,1.53,2.66,3.41S617.15,404.94,615.68,404.94Z"/><path class="cls-7" d="M615.67,385.78H154.28c-1.2,0-2.17-1.24-2.17-2.78s1-2.78,2.17-2.78H615.67a2.86,2.86,0,0,1,0,5.56Z"/><path class="cls-7" d="M623.22,308H148.58a2.86,2.86,0,0,1,0-5.56H623.22c1.2,0,2.17,1.24,2.17,2.78S624.42,308,623.22,308Z"/><path class="cls-2" d="M337.62,290.07H201.55c-1.47,0-2.67-1.53-2.67-3.41s1.2-3.41,2.67-3.41H337.62c1.47,0,2.66,1.53,2.66,3.41S339.09,290.07,337.62,290.07Z"/><path class="cls-2" d="M570.25,290.07H434.18c-1.47,0-2.67-1.53-2.67-3.41s1.2-3.41,2.67-3.41H570.25c1.47,0,2.66,1.53,2.66,3.41S571.72,290.07,570.25,290.07Z"/><text class="cls-8" transform="translate(261.64 365.78) scale(0.78 1)">BAR &amp; GRILL</text><path class="cls-7" d="M391.49,285.89c0,4.26-2.7,7.72-6,7.72s-6-3.46-6-7.72,2.71-7.72,6-7.72S391.49,281.62,391.49,285.89Z"/><path class="cls-2" d="M398.7,289a21,21,0,0,0,10.49,1.4,11.53,11.53,0,0,0,9.38-7.77,14.16,14.16,0,0,0,.4-8,9.14,9.14,0,0,0-4.57-6.07,5.44,5.44,0,0,0-6.91,2,8.58,8.58,0,0,0-1.48,4.65,6.55,6.55,0,0,0,1.93,5.26,1.83,1.83,0,0,0,2.86-.86c1.34-2.76-1.78-3.48-.3-5.58a2.23,2.23,0,0,1,2.63-.81c2.31.85,3.54,4.49,2.58,7.93a10.15,10.15,0,0,1-6.91,6.75A30,30,0,0,1,398.7,289Z"/><path class="cls-2" d="M372.21,289a21.09,21.09,0,0,1-10.5,1.4,11.52,11.52,0,0,1-9.37-7.77,14.07,14.07,0,0,1-.4-8,9.1,9.1,0,0,1,4.56-6.07,5.44,5.44,0,0,1,6.91,2,8.5,8.5,0,0,1,1.48,4.65,6.52,6.52,0,0,1-1.93,5.26,1.83,1.83,0,0,1-2.86-.86c-1.34-2.76,1.79-3.48.3-5.58a2.22,2.22,0,0,0-2.63-.81c-2.3.85-3.53,4.49-2.58,7.93a10.19,10.19,0,0,0,6.91,6.75A30,30,0,0,0,372.21,289Z"/><path class="cls-2" d="M406.52,292.42a18.43,18.43,0,0,0,9.75-.69,14.1,14.1,0,0,0,4.7-2.92,12.22,12.22,0,0,0,3.53-5.95l0-.16a2.9,2.9,0,0,0-1.32-3.4c-1.29-.56-2.68.58-2.77,2.38a8.49,8.49,0,0,1-1.57,4.17,13.32,13.32,0,0,1-3.4,3.42A18.63,18.63,0,0,1,406.52,292.42Z"/><path class="cls-2" d="M364.39,292.42a18.47,18.47,0,0,1-9.76-.69,14.2,14.2,0,0,1-4.7-2.92,12.21,12.21,0,0,1-3.52-5.95l-.05-.16a2.91,2.91,0,0,1,1.33-3.4c1.29-.56,2.67.58,2.77,2.38a8.47,8.47,0,0,0,1.56,4.17,13.64,13.64,0,0,0,3.4,3.42A18.66,18.66,0,0,0,364.39,292.42Z"/><path class="cls-7" d="M157.68,352.09c2.64.86,5.78,1.39,8.38.38,2.21-.87,4.27-2.62,6.58-3.11s5-.14,5.7,3.91c.28,1.83-.18,2.83-1.12,3.25.89-6.92-7.44-2.62-3.33,3.3,2.35,3.37,5.74,1.36,6.82-2.28a11.72,11.72,0,0,0,.43-2.41,7.11,7.11,0,0,0,1.5,1.5c2.67,1.93,6.27.67,6.37-3.84.18-7.91-8.37-4.37-4.21.21-.92.44-1.79.06-2.48-1.57a5.79,5.79,0,0,1-.24-4.4,5.78,5.78,0,0,1,.26-4.41c.68-1.63,1.55-2,2.47-1.56-4.16,4.58,4.37,8.11,4.2.21-.09-4.51-3.69-5.76-6.37-3.87a7.45,7.45,0,0,0-1.51,1.51,10.69,10.69,0,0,0-.42-2.39c-1.09-3.67-4.47-5.67-6.8-2.28-4.12,5.89,4.2,10.22,3.33,3.29.91.4,1.39,1.42,1.09,3.25-.66,4.07-3.33,4.37-5.68,3.89s-4.37-2.22-6.59-3.12c-5.21-2-12.62,2.17-13.58,2.77l0,0c-1.34.87-2.64,1.8-3.89,2.73,1.26.92,2.54,1.84,3.9,2.7A26.62,26.62,0,0,0,157.68,352.09Zm4-6.82a7.59,7.59,0,0,1,4.56,1.76,7.51,7.51,0,0,1-4.55,1.73,13.94,13.94,0,0,1-6.59-1.72A13.69,13.69,0,0,1,161.7,345.27Z"/><path class="cls-7" d="M193.38,351.25c-1.83,0-3.31-1.9-3.31-4.23s1.48-4.22,3.31-4.22,3.3,1.89,3.3,4.22S195.2,351.25,193.38,351.25Z"/><path class="cls-7" d="M612.27,352.09c-2.63.86-5.77,1.39-8.37.38-2.21-.87-4.27-2.62-6.58-3.11s-5.05-.14-5.7,3.91c-.29,1.83.18,2.83,1.12,3.25-.89-6.92,7.44-2.62,3.32,3.3-2.34,3.37-5.73,1.36-6.82-2.28a12.42,12.42,0,0,1-.42-2.41,7.11,7.11,0,0,1-1.5,1.5c-2.68,1.93-6.28.67-6.38-3.84-.18-7.91,8.38-4.37,4.21.21.92.44,1.8.06,2.48-1.57a5.7,5.7,0,0,0,.24-4.4,5.78,5.78,0,0,0-.25-4.41c-.69-1.63-1.56-2-2.47-1.56,4.15,4.58-4.38,8.11-4.21.21.1-4.51,3.69-5.76,6.38-3.87a7.71,7.71,0,0,1,1.51,1.51,10.69,10.69,0,0,1,.42-2.39c1.09-3.67,4.47-5.67,6.8-2.28,4.11,5.89-4.2,10.22-3.33,3.29-.91.4-1.39,1.42-1.09,3.25.65,4.07,3.33,4.37,5.68,3.89s4.37-2.22,6.59-3.12c5.21-2,12.61,2.17,13.57,2.77l0,0c1.35.87,2.64,1.8,3.89,2.73-1.25.92-2.54,1.84-3.89,2.7A27.14,27.14,0,0,1,612.27,352.09Zm-4-6.82A7.54,7.54,0,0,0,603.7,347a7.48,7.48,0,0,0,4.55,1.73,13.94,13.94,0,0,0,6.59-1.72A13.75,13.75,0,0,0,608.26,345.27Z"/><path class="cls-7" d="M576.58,351.25c1.82,0,3.3-1.9,3.3-4.23s-1.48-4.22-3.3-4.22-3.31,1.89-3.31,4.22S574.75,351.25,576.58,351.25Z"/></g></svg>