<svg xmlns="http://www.w3.org/2000/svg" viewBox="0 0 190.97 198"><defs><style>.cls-1{opacity:0.05;}.cls-2{fill:#5e5c5c;}.cls-10,.cls-11,.cls-12,.cls-13,.cls-14,.cls-15,.cls-16,.cls-17,.cls-2,.cls-3,.cls-9{fill-rule:evenodd;}.cls-3,.cls-5{fill:#2c2c2c;}.cls-4,.cls-5,.cls-6{isolation:isolate;}.cls-5{font-size:48.44px;}.cls-5,.cls-6{font-family:AirbnbCerealApp-Medium, Airbnb Cereal App;font-weight:500;}.cls-6{font-size:41.66px;}.cls-18,.cls-6{fill:#fff;}.cls-16,.cls-7{fill:#1b4899;}.cls-8{fill:#484848;}.cls-9{fill:#f69973;}.cls-10{fill:#ed2f3c;}.cls-11{fill:#fcd0a6;}.cls-12{fill:#f16550;}.cls-13{fill:#b4e5f6;}.cls-14{fill:#8bcfff;}.cls-15{fill:#4277d6;}.cls-17{fill:#9dd5fd;}</style></defs><g id="Layer_2" data-name="Layer 2"><g id="Layer_1-2" data-name="Layer 1"><g id="Front-over-White-Fabric" class="cls-1"><g id="Group-7"><path id="Fill-13-Copy-8" class="cls-2" d="M136.63,32.66a21.49,21.49,0,0,0-3.38.27L96,38.89l13.63-32.8a2.6,2.6,0,0,0,1,.2,2.65,2.65,0,1,0-1.39-.4L87.94,40.17,76.24,42,55.17,16.21a1.88,1.88,0,1,0-1.18.42,1.84,1.84,0,0,0,1-.3l16.9,26.4L52.49,45.84a23.1,23.1,0,0,0-10.36,4.49c1.13,1.79,2.38,3.71,3.77,5.73a13.77,13.77,0,0,1,1.82-.43l80.76-12.91a9.84,9.84,0,0,1,11.73,10v65.73a11.46,11.46,0,0,1-7.38,10.4c5,2.13,10.43,4.06,15.86,5.83a14.53,14.53,0,0,0,1.63-1.31,20.93,20.93,0,0,0,6.12-14.92V52.75a20.18,20.18,0,0,0-5.71-14.28A19.61,19.61,0,0,0,136.63,32.66Z"/><path id="Fill-15-Copy-8" class="cls-3" d="M133.08,128.85a11.25,11.25,0,0,1-4.91.74l-80.35-5.51A12.93,12.93,0,0,1,36,111.38V69.47a14.51,14.51,0,0,1,9.89-13.33c-1.38-2-2.64-4-3.77-5.73a24.3,24.3,0,0,0-9.68,19.06v41.91a22.83,22.83,0,0,0,21,22.59l80.35,5.51c.49,0,1,.05,1.48.05a20.75,20.75,0,0,0,13.39-4.82c-5.42-1.76-10.62-3.73-15.61-5.86"/><g id="Group-2-Copy-9"><g id="D-Copy-7" class="cls-4"><text class="cls-5" transform="translate(55.69 107.16)">D</text></g><g id="G-Copy-7" class="cls-4"><text class="cls-5" transform="translate(80.39 107.16)">G</text></g><g id="_2" data-name="2" class="cls-4"><text class="cls-6" transform="translate(75.07 103.06)">2</text></g></g></g><path id="DIRECT2GUESTS" class="cls-7" d="M6.58,175a10.56,10.56,0,0,0,3.68-.61,8.27,8.27,0,0,0,2.87-1.75A7.94,7.94,0,0,0,15,169.92a8.82,8.82,0,0,0,.66-3.46A9,9,0,0,0,15,163a7.66,7.66,0,0,0-1.85-2.69,8.4,8.4,0,0,0-2.85-1.74A10.52,10.52,0,0,0,6.62,158H0v17Zm-.17-3.17H3.58v-10.7H6.41a6.23,6.23,0,0,1,2.95.65,4.55,4.55,0,0,1,1.92,1.84,6.44,6.44,0,0,1,0,5.72,4.55,4.55,0,0,1-1.92,1.84,6.23,6.23,0,0,1-2.95.65ZM21.79,175V158H18.22v17Zm6.65,0v-6a11.63,11.63,0,0,0,1.68.14l1,0h0l3,5.9h3.94l-3.87-6.84A5.36,5.36,0,0,0,35.78,167a5.42,5.42,0,0,0,1-1.63,5,5,0,0,0,.36-1.89A5,5,0,0,0,34,158.62a9.07,9.07,0,0,0-3.62-.66H24.91v17Zm1.87-8.86q-.49,0-1,0c-.3,0-.61-.06-.91-.11h0v-5h1.87a3.71,3.71,0,0,1,2.38.68,2.27,2.27,0,0,1,.84,1.89,2.33,2.33,0,0,1-.84,1.91A3.65,3.65,0,0,1,30.31,166.14ZM51,175V172H43.51v-4.17H50v-3.05H43.51V161h7.23v-3H40.06v17Zm10.8.48a8.77,8.77,0,0,0,3.33-.62,7.53,7.53,0,0,0,2.61-1.78,7,7,0,0,0,1.59-2.71h0l-3.45-.87a4.86,4.86,0,0,1-1.67,2,4.35,4.35,0,0,1-2.41.68,4.44,4.44,0,0,1-1.94-.41,4.5,4.5,0,0,1-1.52-1.16,5.47,5.47,0,0,1-1-1.79,7.18,7.18,0,0,1-.34-2.28,7.07,7.07,0,0,1,.36-2.3,5.9,5.9,0,0,1,1-1.84,4.62,4.62,0,0,1,1.51-1.21,4.22,4.22,0,0,1,1.89-.43,4,4,0,0,1,2.35.71,4.68,4.68,0,0,1,1.61,2h0l3.45-.87a6.75,6.75,0,0,0-1.06-2.11,7.73,7.73,0,0,0-1.67-1.61,7.44,7.44,0,0,0-2.14-1,8.74,8.74,0,0,0-5.22.08,8.09,8.09,0,0,0-2.34,1.28,8.51,8.51,0,0,0-1.82,2,9.42,9.42,0,0,0-1.19,2.52,10.38,10.38,0,0,0,0,5.81,8.65,8.65,0,0,0,1.16,2.45,8.09,8.09,0,0,0,1.81,1.88A8.29,8.29,0,0,0,59,175.05,8.58,8.58,0,0,0,61.78,175.48ZM79.42,175V161.13h4.8V158H71v3.17h4.8V175Zm18.38,0v-3H91.34c.44-.37.86-.74,1.26-1.1s.81-.72,1.19-1.09a27.44,27.44,0,0,0,2.13-2.3,8.16,8.16,0,0,0,1.21-2,5.56,5.56,0,0,0,.38-2,5.41,5.41,0,0,0-.42-2.14,5.19,5.19,0,0,0-1.16-1.7,5.42,5.42,0,0,0-1.77-1.13,6,6,0,0,0-2.24-.41,6.16,6.16,0,0,0-2.69.59,5.76,5.76,0,0,0-2,1.64,6,6,0,0,0-1.12,2.5h0l3.24.55a3.07,3.07,0,0,1,.9-1.63,2.31,2.31,0,0,1,1.6-.6,2.09,2.09,0,0,1,1.57.63A2.41,2.41,0,0,1,94,163.5a3.29,3.29,0,0,1-.32,1.44,7.35,7.35,0,0,1-1,1.49,24.37,24.37,0,0,1-1.66,1.8c-.29.29-.57.57-.86.84l-1,.9c-.36.33-.79.7-1.27,1.11l-1.68,1.42h0V175Zm10.87.48a9.34,9.34,0,0,0,3.36-.59,7.53,7.53,0,0,0,4.36-4.23,8.5,8.5,0,0,0,.61-3.27h0v-1.8h-7.92v2.95h4.25a4,4,0,0,1-2.31,3.2,5.06,5.06,0,0,1-2.18.45,5.2,5.2,0,0,1-2.11-.42,4.82,4.82,0,0,1-1.67-1.19,5.29,5.29,0,0,1-1.09-1.82,6.57,6.57,0,0,1-.39-2.3,6.35,6.35,0,0,1,.39-2.26,5.42,5.42,0,0,1,1.08-1.81,4.79,4.79,0,0,1,1.63-1.2,4.9,4.9,0,0,1,2-.42,4.47,4.47,0,0,1,2.36.62,4.78,4.78,0,0,1,1.67,1.78h0l3.46-1.06a7.26,7.26,0,0,0-1.74-2.49,8,8,0,0,0-2.58-1.59,8.87,8.87,0,0,0-3.17-.55,9,9,0,0,0-2.84.44,9.22,9.22,0,0,0-2.44,1.25,8.29,8.29,0,0,0-1.9,1.93,9.86,9.86,0,0,0-1.22,8.34,8.82,8.82,0,0,0,1.21,2.46,8.27,8.27,0,0,0,1.87,1.91,8.45,8.45,0,0,0,2.43,1.24A9.08,9.08,0,0,0,108.67,175.48Zm17.91,0a8.3,8.3,0,0,0,3-.52,6.54,6.54,0,0,0,2.33-1.48,6.65,6.65,0,0,0,1.49-2.33,8.62,8.62,0,0,0,.51-3h0V158h-3.57v10a5.12,5.12,0,0,1-.47,2.26,3.5,3.5,0,0,1-1.31,1.48,4.16,4.16,0,0,1-4,0,3.38,3.38,0,0,1-1.31-1.48,5.12,5.12,0,0,1-.46-2.26h0V158h-3.57v10.15a8.62,8.62,0,0,0,.51,3,6.77,6.77,0,0,0,1.48,2.33,6.51,6.51,0,0,0,2.3,1.48A8.3,8.3,0,0,0,126.58,175.48Zm21.16-.48V172h-7.46v-4.17h6.46v-3.05h-6.46V161h7.22v-3H136.82v17Zm8.12.36a7.27,7.27,0,0,0,2.47-.4,5.76,5.76,0,0,0,2-1.14,5.2,5.2,0,0,0,1.3-1.75,5.09,5.09,0,0,0,.47-2.23,4.29,4.29,0,0,0-1.26-3.19,7.86,7.86,0,0,0-3.87-1.83h0l-.77-.16a5.73,5.73,0,0,1-1.92-.74,1.45,1.45,0,0,1-.65-1.28,1.76,1.76,0,0,1,.3-1,2.07,2.07,0,0,1,.82-.69,2.57,2.57,0,0,1,1.16-.25,2.64,2.64,0,0,1,2.64,2h0l3.29-.72a5.19,5.19,0,0,0-1.13-2.33,5.54,5.54,0,0,0-2.06-1.51,6.66,6.66,0,0,0-2.64-.53,6.55,6.55,0,0,0-2.33.4,5.91,5.91,0,0,0-1.89,1.1,5.3,5.3,0,0,0-1.26,1.67,4.9,4.9,0,0,0-.45,2.11A4.28,4.28,0,0,0,151.3,166a7.46,7.46,0,0,0,3.88,1.86h0l.77.17a5,5,0,0,1,2,.8,1.59,1.59,0,0,1,.6,1.29,1.9,1.9,0,0,1-.33,1.1,2.22,2.22,0,0,1-.91.76,3.2,3.2,0,0,1-1.36.27,3.12,3.12,0,0,1-1.86-.55,2.91,2.91,0,0,1-1.09-1.53h0l-3.33.72a5.32,5.32,0,0,0,1.23,2.38,6,6,0,0,0,2.19,1.54A7.16,7.16,0,0,0,155.86,175.36Zm16.29-.36V161.13H177V158H163.78v3.17h4.8V175Zm12.6.36a7.23,7.23,0,0,0,2.47-.4,5.66,5.66,0,0,0,2-1.14,5.17,5.17,0,0,0,1.78-4,4.29,4.29,0,0,0-1.26-3.19,7.86,7.86,0,0,0-3.88-1.83h0l-.77-.16a5.91,5.91,0,0,1-1.92-.74,1.44,1.44,0,0,1-.64-1.28,1.76,1.76,0,0,1,.3-1,2.11,2.11,0,0,1,.81-.69,2.61,2.61,0,0,1,1.17-.25,2.73,2.73,0,0,1,1.64.51,2.82,2.82,0,0,1,1,1.48h0l3.28-.72a5.17,5.17,0,0,0-1.12-2.33,5.5,5.5,0,0,0-2.07-1.51,6.91,6.91,0,0,0-5-.13,5.86,5.86,0,0,0-1.88,1.1,5,5,0,0,0-1.26,1.67,4.9,4.9,0,0,0-.46,2.11,4.32,4.32,0,0,0,1.25,3.13,7.5,7.5,0,0,0,3.89,1.86h0l.77.17a5,5,0,0,1,1.94.8,1.59,1.59,0,0,1,.6,1.29,2,2,0,0,1-.32,1.1,2.28,2.28,0,0,1-.91.76,3.27,3.27,0,0,1-1.36.27,3.12,3.12,0,0,1-1.86-.55,2.91,2.91,0,0,1-1.09-1.53h0l-3.34.72a5.44,5.44,0,0,0,1.24,2.38,6,6,0,0,0,2.18,1.54A7.23,7.23,0,0,0,184.75,175.36Z"/><path id="IPTVSystems" class="cls-8" d="M54.76,195v-9.94H53.58V195Zm3.36,0v-3.81l.75.09.66,0a5,5,0,0,0,2-.37,3.09,3.09,0,0,0,1.32-1.08,3,3,0,0,0,.46-1.65,3.09,3.09,0,0,0-.44-1.68,2.77,2.77,0,0,0-1.25-1.08,4.68,4.68,0,0,0-2-.38H56.94V195Zm1.39-4.75-.68,0c-.25,0-.49,0-.71-.09h0v-4h1.55a3.11,3.11,0,0,1,1.32.25,2,2,0,0,1,.84.72,2,2,0,0,1,.29,1.1,1.84,1.84,0,0,1-.68,1.53A3.06,3.06,0,0,1,59.51,190.25ZM68.73,195v-8.86h3v-1.08H64.52v1.08h3V195Zm9.11,0,3.84-9.94H80.45l-3.19,8.57-3.21-8.57H72.76L76.6,195Zm11.06.21a3.73,3.73,0,0,0,1.32-.22,3.07,3.07,0,0,0,1-.61,2.8,2.8,0,0,0,.69-.95,3.05,3.05,0,0,0,.24-1.22,2.52,2.52,0,0,0-.65-1.76,3.67,3.67,0,0,0-2-1h0l-.61-.14a3.2,3.2,0,0,1-1.47-.65,1.33,1.33,0,0,1-.47-1.05,1.52,1.52,0,0,1,.24-.86,1.64,1.64,0,0,1,.66-.59,2,2,0,0,1,1-.22,2,2,0,0,1,1.24.39,2.41,2.41,0,0,1,.82,1.14h0l1.1-.35a3.07,3.07,0,0,0-.67-1.18,3.16,3.16,0,0,0-1.1-.78,3.52,3.52,0,0,0-1.39-.27,3.6,3.6,0,0,0-1.2.2,3.05,3.05,0,0,0-1,.58,2.69,2.69,0,0,0-.65.89,2.63,2.63,0,0,0-.23,1.13,2.34,2.34,0,0,0,.68,1.72,4.07,4.07,0,0,0,2.06,1h0l.62.14a2.84,2.84,0,0,1,1.35.64,1.48,1.48,0,0,1,.47,1.12,1.74,1.74,0,0,1-.28,1,1.81,1.81,0,0,1-.75.67,2.35,2.35,0,0,1-3.3-1.29h0l-1.11.35a3,3,0,0,0,.72,1.19,3.21,3.21,0,0,0,1.16.78A3.86,3.86,0,0,0,88.9,195.21ZM94.38,198a2.07,2.07,0,0,0,1.33-.46,3.23,3.23,0,0,0,.92-1.41h0l3.22-8.35H98.66l-2.08,5.93-2.31-5.93H93l3,7.15-.38.94a2.14,2.14,0,0,1-.56.86,1.19,1.19,0,0,1-.77.27,1.5,1.5,0,0,1-.37,0,1.07,1.07,0,0,1-.31-.13h0l-.32.9a2.16,2.16,0,0,0,.51.2A1.93,1.93,0,0,0,94.38,198Zm9-2.79a3.4,3.4,0,0,0,1.08-.17,2.64,2.64,0,0,0,.86-.47,2.59,2.59,0,0,0,.56-.72,2.17,2.17,0,0,0,.2-.92,1.76,1.76,0,0,0-.55-1.34,3.11,3.11,0,0,0-1.58-.73h0l-.54-.12a2.67,2.67,0,0,1-1.12-.42.83.83,0,0,1-.34-.71.91.91,0,0,1,.18-.56,1.3,1.3,0,0,1,.5-.38,1.83,1.83,0,0,1,.73-.14,1.63,1.63,0,0,1,1,.29,1.83,1.83,0,0,1,.64.8h0l1-.33a2.68,2.68,0,0,0-.57-.93,2.35,2.35,0,0,0-.89-.59,3,3,0,0,0-1.13-.2,3.13,3.13,0,0,0-1.33.27,2.24,2.24,0,0,0-.9.76,2,2,0,0,0-.32,1.12,1.69,1.69,0,0,0,.55,1.3,3.37,3.37,0,0,0,1.69.73h0l.55.11c.87.18,1.31.57,1.31,1.18a1,1,0,0,1-.19.61,1.49,1.49,0,0,1-.55.43,2,2,0,0,1-.81.15,1.88,1.88,0,0,1-1-.29,2.25,2.25,0,0,1-.72-.83h0l-1,.36a2.45,2.45,0,0,0,.62.93,2.84,2.84,0,0,0,1,.6A3.35,3.35,0,0,0,103.37,195.21Zm6.89,0a2.71,2.71,0,0,0,.88-.13,2.56,2.56,0,0,0,.68-.35h0l-.33-.86a2.21,2.21,0,0,1-.54.24,2.08,2.08,0,0,1-.6.09,1,1,0,0,1-.83-.35,1.66,1.66,0,0,1-.27-1h0v-4.11h2.26v-.95h-2.26v-2.43h-1.12v2.43H106.8v.95h1.33v4.17a2.73,2.73,0,0,0,.26,1.26,1.68,1.68,0,0,0,.73.78A2.29,2.29,0,0,0,110.26,195.21Zm6.28,0a3.88,3.88,0,0,0,1.24-.2,3.35,3.35,0,0,0,1-.58,3.22,3.22,0,0,0,.73-.91h0l-1-.44a2.54,2.54,0,0,1-.88.85,2.42,2.42,0,0,1-1.2.29,2.31,2.31,0,0,1-1.23-.33,2.27,2.27,0,0,1-.85-.91,3.42,3.42,0,0,1-.37-1.37h5.62v-.46a4,4,0,0,0-.25-1.43,3.24,3.24,0,0,0-.69-1.13,3,3,0,0,0-1.06-.74,3.18,3.18,0,0,0-1.32-.27,3.27,3.27,0,0,0-1.37.29,3.35,3.35,0,0,0-1.1.8,3.8,3.8,0,0,0-.73,1.21,4.41,4.41,0,0,0-.26,1.52,4.17,4.17,0,0,0,.27,1.53,3.41,3.41,0,0,0,1.91,2A3.65,3.65,0,0,0,116.54,195.21Zm2-4.47h-4.38a2.87,2.87,0,0,1,.41-1.15,2.36,2.36,0,0,1,.79-.78,2.07,2.07,0,0,1,2.08,0,2.34,2.34,0,0,1,.75.78,2.68,2.68,0,0,1,.35,1.15Zm3.89,4.26v-4.34a2.22,2.22,0,0,1,.26-1.06,1.89,1.89,0,0,1,.69-.74,1.93,1.93,0,0,1,1-.27,1.56,1.56,0,0,1,1.28.56,2.6,2.6,0,0,1,.44,1.64h0V195h1.13v-4.34a2.21,2.21,0,0,1,.25-1.06,2,2,0,0,1,.71-.74,1.94,1.94,0,0,1,1-.27,1.51,1.51,0,0,1,1.26.56,2.67,2.67,0,0,1,.44,1.64h0V195H132v-4.28a4,4,0,0,0-.32-1.68,2.39,2.39,0,0,0-2.31-1.47,2.77,2.77,0,0,0-1.08.2,2.61,2.61,0,0,0-.86.56,2.29,2.29,0,0,0-.54.83A2.53,2.53,0,0,0,126,188a2.4,2.4,0,0,0-1.41-.42,2.52,2.52,0,0,0-1.35.35,2.35,2.35,0,0,0-.89,1h0l-.06-1.1h-1V195Zm13.79.21a3.46,3.46,0,0,0,1.09-.17,2.59,2.59,0,0,0,.85-.47,2.27,2.27,0,0,0,.56-.72,2,2,0,0,0,.21-.92,1.8,1.8,0,0,0-.55-1.34,3.11,3.11,0,0,0-1.58-.73h0l-.55-.12a2.67,2.67,0,0,1-1.11-.42.83.83,0,0,1-.34-.71.91.91,0,0,1,.18-.56,1.27,1.27,0,0,1,.49-.38,1.88,1.88,0,0,1,.74-.14,1.67,1.67,0,0,1,1,.29,1.81,1.81,0,0,1,.63.8h0l1-.33a2.82,2.82,0,0,0-.56-.93,2.43,2.43,0,0,0-.89-.59,3,3,0,0,0-1.14-.2,3.11,3.11,0,0,0-1.32.27,2.11,2.11,0,0,0-.9.76,2,2,0,0,0-.32,1.12,1.72,1.72,0,0,0,.54,1.3,3.41,3.41,0,0,0,1.69.73h0l.55.11c.88.18,1.32.57,1.32,1.18a1,1,0,0,1-.2.61,1.34,1.34,0,0,1-.55.43,2,2,0,0,1-.81.15,1.87,1.87,0,0,1-1-.29,2.27,2.27,0,0,1-.73-.83h0l-1,.36a2.55,2.55,0,0,0,.61.93,2.79,2.79,0,0,0,1,.6A3.29,3.29,0,0,0,136.18,195.21Z"/><g id="Group"><path id="Fill-1-Copy-4" class="cls-9" d="M86.9,99.66l-2.46,1A199.75,199.75,0,0,0,135.32,132a11.18,11.18,0,0,0,7.12-10.54V95a133.73,133.73,0,0,1-38.92,5.66,139.19,139.19,0,0,1-16.62-1"/><path id="Fill-3-Copy-4" class="cls-10" d="M74.2,104.48c-6.28,2.54-11.42-.9-11.42-7.64V94.46A108.86,108.86,0,0,1,34.44,81v33.19a13.39,13.39,0,0,0,12.3,13.1l83.6,5.68a11.65,11.65,0,0,0,5.1-.77A201.62,201.62,0,0,1,84,100.53Z"/><path id="Fill-5-Copy-3" class="cls-11" d="M131.25,43.15,47.33,56.41a13.63,13.63,0,0,0-1.89.44A218.66,218.66,0,0,0,63.84,80c1.22-4.85,5.74-7,11.1-4.86l24.38,9.81c6.29,2.53,6.29,6.68,0,9.21L87.2,99A142.79,142.79,0,0,0,104,100a135.85,135.85,0,0,0,39.4-5.7V53.45c0-6.73-5.48-11.36-12.19-10.3"/><path id="Fill-7-Copy-3" class="cls-12" d="M63.11,82.79A11.33,11.33,0,0,1,63.44,80,219.3,219.3,0,0,1,44.85,57C39,58.83,34.44,64.6,34.44,70.66v10A111.16,111.16,0,0,0,63.11,94Z"/><path id="Fill-9-Copy-3" class="cls-13" d="M35.45,81.43s45.49,34.56,108,13.26V54.56s-.39-15-16-11L48.59,56.16S33.58,56.94,34,71.5Z"/><path id="Fill-11-Copy-3" class="cls-14" d="M34.41,81l-1,31.8s-.37,14.47,13.3,14.56L127,132.81s6,.7,8.42-.6c0,0-41.18-23.38-52.67-32.69,0,0-25.15-4.8-48.36-18.52l82.85,49.76"/><path id="Fill-13-Copy-3" class="cls-15" d="M139,32.68a21.58,21.58,0,0,0-3.48.28L97,39.11,111.08,5.25a2.76,2.76,0,0,0,1,.21,2.73,2.73,0,1,0-1.43-.41l-22,35.39L76.66,42.37,54.91,15.7a2,2,0,0,0,.71-1.51,1.94,1.94,0,1,0-1.94,2,2,2,0,0,0,1-.31L72.18,43.08l-20,3.2a24,24,0,0,0-10.7,4.64c1.17,1.85,2.46,3.83,3.89,5.92a13.2,13.2,0,0,1,1.88-.45l83.37-13.32a10.15,10.15,0,0,1,12.1,10.34v67.86A11.82,11.82,0,0,1,135.07,132c5.16,2.2,10.77,4.2,16.37,6a13.51,13.51,0,0,0,1.68-1.35,21.57,21.57,0,0,0,6.32-15.4V53.41a20.77,20.77,0,0,0-5.9-14.73A20.23,20.23,0,0,0,139,32.68Z"/><path id="Fill-15-Copy-3" class="cls-16" d="M135.32,132a11.45,11.45,0,0,1-5.06.77l-82.94-5.69a13.35,13.35,0,0,1-12.21-13.11V70.67A15,15,0,0,1,45.32,56.92c-1.43-2.1-2.72-4.08-3.88-5.92a25,25,0,0,0-10,19.67v43.27a23.56,23.56,0,0,0,21.71,23.32L136.09,143c.51,0,1,.05,1.53.05a21.36,21.36,0,0,0,13.82-5c-5.59-1.82-11-3.85-16.12-6.05"/><path id="Fill-18-Copy-3" class="cls-17" d="M142.67,94.89s-26,9.39-59.37,5c0,0-30.51-29.7-38-43,0,0-11.21,3.12-10.27,16.29l.06,8.2S64.46,98.92,83.3,99.9A200.28,200.28,0,0,0,135.15,132s7-1.1,7.52-10.09Z"/><g id="Group-2-Copy-4"><path id="D" class="cls-7" d="M72.89,109a21.72,21.72,0,0,0,7.68-1.3,17.92,17.92,0,0,0,6-3.67,16.55,16.55,0,0,0,3.9-5.63,19.6,19.6,0,0,0,0-14.4,16.24,16.24,0,0,0-3.9-5.6,17.67,17.67,0,0,0-6-3.63A22,22,0,0,0,73,73.5H58.44V109Zm-.45-7.7h-5.3V81.2h5.3A11.81,11.81,0,0,1,78,82.42a8.75,8.75,0,0,1,3.6,3.48,11.9,11.9,0,0,1,0,10.7,8.75,8.75,0,0,1-3.6,3.48,11.81,11.81,0,0,1-5.53,1.22Z"/><path id="G" class="cls-7" d="M101.69,110a20,20,0,0,0,7.17-1.25,16.78,16.78,0,0,0,5.68-3.53,15.6,15.6,0,0,0,3.7-5.37,17.49,17.49,0,0,0,1.3-6.85h0V89h-17v7h8a7.42,7.42,0,0,1-4.48,5.4,10.07,10.07,0,0,1-4,.75,10.44,10.44,0,0,1-4.12-.8,9.48,9.48,0,0,1-3.25-2.25,10.13,10.13,0,0,1-2.13-3.45,12.43,12.43,0,0,1-.75-4.4,12,12,0,0,1,.75-4.32,10.51,10.51,0,0,1,2.08-3.43,9.17,9.17,0,0,1,3.12-2.25,9.68,9.68,0,0,1,4-.8,8.87,8.87,0,0,1,4.57,1.15,8.43,8.43,0,0,1,3.18,3.35h0l8.5-2.45a16.09,16.09,0,0,0-9.32-8.77,20.72,20.72,0,0,0-13-.25A19,19,0,0,0,90.49,76a17.41,17.41,0,0,0-4,4,18.55,18.55,0,0,0-2.62,5.2,19.53,19.53,0,0,0-.93,6.1,19.84,19.84,0,0,0,.9,6.07,17.47,17.47,0,0,0,2.6,5.13,18,18,0,0,0,9.2,6.55A20.13,20.13,0,0,0,101.69,110Z"/><path id="_2-2" data-name="2" class="cls-18" d="M98.36,105V98.76H87.7c.63-.51,1.23-1,1.8-1.54l1.72-1.55A37.2,37.2,0,0,0,95,91.61,14.81,14.81,0,0,0,97.16,88a10,10,0,0,0,.68-3.63,9.69,9.69,0,0,0-.75-3.83A9.11,9.11,0,0,0,95,77.46a9.71,9.71,0,0,0-3.22-2,11,11,0,0,0-4.09-.73,11.72,11.72,0,0,0-3.87.62,10.59,10.59,0,0,0-5.65,4.53,10.89,10.89,0,0,0-1.36,3.57h0l6.75,1.08A4.44,4.44,0,0,1,84.86,82a3.48,3.48,0,0,1,2.41-.88,3.26,3.26,0,0,1,2.38.9,3.3,3.3,0,0,1,.93,2.49A6,6,0,0,1,90,87a12,12,0,0,1-1.75,2.67,41.48,41.48,0,0,1-3,3.16c-.58.55-1.24,1.15-2,1.83s-1.62,1.43-2.62,2.28-2.18,1.84-3.53,3h0V105Z"/></g></g></g></g></g></svg>